<svg width="48" height="48" viewBox="0 0 48 48" fill="none" xmlns="http://www.w3.org/2000/svg">
<style>
    path { fill: #000000; }
    rect { stroke: #000000; }
    @media (prefers-color-scheme: dark) {
      path { fill: #ffffff; }
      rect { stroke: #ffffff; }
    }
  </style>
<path d="M22.7227 32H20.4609L11.8711 18.8516V32H9.60938V14.9375H11.8711L20.4844 28.1445V14.9375H22.7227V32ZM39.2695 26.5859C39.0586 28.3906 38.3906 29.7852 37.2656 30.7695C36.1484 31.7461 34.6602 32.2344 32.8008 32.2344C30.7852 32.2344 29.168 31.5117 27.9492 30.0664C26.7383 28.6211 26.1328 26.6875 26.1328 24.2656V22.625C26.1328 21.0391 26.4141 19.6445 26.9766 18.4414C27.5469 17.2383 28.3516 16.3164 29.3906 15.6758C30.4297 15.0273 31.6328 14.7031 33 14.7031C34.8125 14.7031 36.2656 15.2109 37.3594 16.2266C38.4531 17.2344 39.0898 18.6328 39.2695 20.4219H37.0078C36.8125 19.0625 36.3867 18.0781 35.7305 17.4688C35.082 16.8594 34.1719 16.5547 33 16.5547C31.5625 16.5547 30.4336 17.0859 29.6133 18.1484C28.8008 19.2109 28.3945 20.7227 28.3945 22.6836V24.3359C28.3945 26.1875 28.7812 27.6602 29.5547 28.7539C30.3281 29.8477 31.4102 30.3945 32.8008 30.3945C34.0508 30.3945 35.0078 30.1133 35.6719 29.5508C36.3438 28.9805 36.7891 27.9922 37.0078 26.5859H39.2695Z" />
<rect x="1" y="1" width="46" height="46" stroke-width="2"/>
</svg>
